<svg width="122" height="32" viewBox="0 0 122 32" fill="none" xmlns="http://www.w3.org/2000/svg">
<mask id="mask0_1_23" style="mask-type:luminance" maskUnits="userSpaceOnUse" x="0" y="0" width="122" height="32">
<path d="M122 0.0538635H0V31.9461H122V0.0538635Z" fill="white"/>
</mask>
<g mask="url(#mask0_1_23)">
<path d="M18.8767 4.16214L30.2036 1.1308V22.9027L18.8767 19.8379V4.16214Z" fill="#C40D23"/>
<path d="M0 0.0538635L18.8767 8.16209V23.8379L0 31.9461V0.0538635Z" fill="#F80B28"/>
<path d="M49.3621 4.84704C49.1986 4.67356 49.0059 4.53025 48.7938 4.42356C48.2584 4.163 47.6682 4.03818 47.0744 4.0599H46.0821V8.4789C46.0821 12.8835 46.1459 12.9433 46.4751 13.5486L46.6175 13.8046C46.6175 13.8046 46.1935 13.7759 45.1963 13.7759C44.1996 13.7759 43.7472 13.8046 43.7472 13.8046L43.8869 13.5486C44.2041 12.972 44.2822 12.8668 44.2822 8.32815V4.0599H43.2877C42.6948 4.04146 42.1059 4.16958 41.5732 4.43314C41.3603 4.5391 41.168 4.6825 41.0049 4.85661C41.0391 4.52442 41.0548 4.19053 41.0521 3.85654C41.0521 3.28233 41.0355 3.02634 41.0355 3.02634H49.3243C49.3243 3.02634 49.3077 3.28233 49.3077 3.85654C49.3073 4.18748 49.3257 4.51816 49.3621 4.84704Z" fill="black"/>
<path d="M59.2325 13.7759C58.2236 13.7759 57.7807 13.8046 57.7807 13.8046L57.9231 13.5486C58.2236 12.9888 58.3184 12.8524 58.3184 8.85687H53.3666C53.3666 12.8668 53.4303 12.9577 53.7596 13.5486L53.902 13.8046C53.902 13.8046 53.4757 13.7759 52.4808 13.7759C51.4863 13.7759 51.029 13.8046 51.029 13.8046L51.1714 13.5486C51.4885 12.972 51.5667 12.8668 51.5667 8.32813C51.5667 3.92351 51.5029 3.8637 51.1714 3.25839L51.029 3C51.029 3 51.4413 3.03111 52.4641 3.03111C53.4874 3.03111 53.8993 3 53.8993 3L53.7574 3.25839C53.4591 3.80149 53.3643 3.93787 53.3643 7.61518H58.3161C58.3161 3.96897 58.2358 3.8326 57.9204 3.25839L57.7785 3C57.7785 3 58.1881 3.03111 59.2136 3.03111C60.2391 3.03111 60.6488 3 60.6488 3L60.5064 3.25839C60.1915 3.8326 60.1133 3.93787 60.1133 8.47888C60.1133 12.8835 60.1749 12.9433 60.5064 13.5486L60.6488 13.8046C60.6488 13.8046 60.2414 13.7759 59.2325 13.7759Z" fill="black"/>
<path d="M70.0952 13.3213L70.0646 13.7998H64.497C63.6467 13.7998 63.2846 13.8142 63.2846 13.8142L63.4266 13.5582C63.7414 12.9816 63.8196 12.8763 63.8196 8.33771C63.8196 3.93307 63.7558 3.87325 63.4266 3.26795L63.2846 3.00955C63.2846 3.00955 63.63 3.0263 64.4826 3.0263H69.9061C69.9061 3.0263 69.8917 3.2823 69.8917 3.8565C69.8885 4.18573 69.9043 4.51487 69.9389 4.84223C69.7718 4.67684 69.58 4.53881 69.3706 4.4331C68.8262 4.18508 68.2315 4.07111 67.635 4.10054H65.6172V7.8592H67.2581C67.9997 7.8592 68.6129 7.78261 68.992 7.56969C69.1995 7.46809 69.3909 7.33585 69.5602 7.17733C69.5602 7.19166 69.5126 7.61515 69.5126 8.40231C69.5126 9.18942 69.5602 9.58421 69.5602 9.61291C69.3913 9.44945 69.1999 9.31164 68.992 9.20379C68.6129 8.99326 67.9997 8.91667 67.2581 8.91667H65.6172V12.716H67.4787C69.4322 12.716 69.6855 12.2782 70.2681 11.4599C70.2636 11.4599 70.19 12.0198 70.0952 13.3213Z" fill="black"/>
<path d="M48.8266 29.5546C47.7068 29.5546 47.2805 29.1 46.5227 27.9492L45.4523 26.3151C44.5216 24.9083 44.3487 24.6044 43.5577 24.6044C43.4674 24.6039 43.3771 24.6095 43.2877 24.6212C43.2877 28.4348 43.3515 28.6454 43.683 29.2364L43.8254 29.4924C43.8254 29.4924 43.4157 29.4636 42.4208 29.4636C41.4263 29.4636 41 29.4924 41 29.4924L41.1419 29.2364C41.4573 28.6765 41.5354 28.5544 41.5354 24.0159C41.5354 19.6112 41.4734 19.5514 41.1419 18.9461L41 18.6877C41 18.6877 41.4878 18.7188 42.1841 18.7188C42.6575 18.7188 43.5244 18.6877 44.0787 18.6877C46.0349 18.6877 48.4314 18.8241 48.4314 21.4272C48.4314 22.834 47.5478 24.3173 45.0094 24.2982C46.3188 24.4633 46.8066 25.114 47.6143 26.4012L48.3864 27.6884C48.9075 28.5497 49.3005 29.1239 49.9325 29.3966C49.9303 29.3966 49.6936 29.5546 48.8266 29.5546ZM44.0311 19.683C43.6214 19.683 43.29 19.7117 43.29 19.7117V23.6163C43.29 23.6163 43.5743 23.6331 44.1591 23.6331C44.3626 23.6331 44.8199 23.6019 45.0876 23.5709C45.8759 23.4345 46.5227 22.8148 46.5227 21.6186C46.5227 19.8935 45.4523 19.683 44.0311 19.683Z" fill="black"/>
<path d="M58.207 29.0043L58.1764 29.4827H52.6088C51.7585 29.4827 51.3964 29.4971 51.3964 29.4971L51.5384 29.2411C51.8533 28.6669 51.9314 28.5593 51.9314 24.0206C51.9314 19.616 51.8676 19.5562 51.5384 18.9509L51.3964 18.6925C51.3964 18.6925 51.7418 18.7093 52.5944 18.7093H58.0174C58.0174 18.7093 58.0035 18.9653 58.0035 19.5394C57.9999 19.8687 58.0161 20.1978 58.0507 20.5251C57.8836 20.3598 57.6918 20.2218 57.4825 20.116C56.938 19.868 56.3433 19.7541 55.7468 19.7835H53.729V23.5422H55.3699C56.1111 23.5422 56.7247 23.4656 57.1034 23.2527C57.3113 23.151 57.5027 23.0188 57.672 22.8602C57.672 22.8746 57.6244 23.2981 57.6244 24.0852C57.6244 24.8724 57.672 25.2671 57.672 25.2958C57.5031 25.1327 57.3118 24.9956 57.1034 24.8891C56.7247 24.6762 56.1111 24.5996 55.3699 24.5996H53.729V28.3989H55.5806C57.5346 28.3989 57.7879 27.9611 58.3705 27.1429C58.3799 27.1429 58.3018 27.7027 58.207 29.0043Z" fill="black"/>
<path d="M64.1345 25.248C63.7711 25.2478 63.4077 25.2222 63.0474 25.1715C63.0474 28.3655 63.1094 28.6382 63.4576 29.2387L63.5995 29.4947C63.5995 29.4947 63.1898 29.466 62.1643 29.466C61.1388 29.466 60.7292 29.4947 60.7292 29.4947L60.8711 29.2387C61.1865 28.6789 61.2646 28.5569 61.2646 24.0183C61.2646 19.6137 61.2031 19.5538 60.8711 18.9485L60.7292 18.6901C60.7292 18.6901 61.1721 18.7213 61.8966 18.7213C62.5574 18.7213 63.4099 18.6901 63.8838 18.6901C65.4277 18.6901 68.267 18.7978 68.267 21.8698C68.267 24.7695 65.8845 25.248 64.1345 25.248ZM63.8695 19.6831C63.3956 19.6831 63.0501 19.7118 63.0501 19.7118V24.1929C63.3529 24.2335 63.6588 24.2486 63.9642 24.2384C66.2519 24.2384 66.3467 22.7096 66.3467 21.8459C66.344 19.9247 64.9232 19.6831 63.8695 19.6831Z" fill="black"/>
<path d="M75.1396 29.655C71.8762 29.655 70.0952 27.5664 70.0952 24.3293C70.0952 22.7096 70.5691 18.5873 75.1562 18.5873C78.4361 18.5873 80.2167 20.6759 80.2167 23.913C80.21 25.5232 79.7361 29.655 75.1396 29.655ZM75.1396 19.683C73.4699 19.683 72.0608 20.8314 72.0608 24.1618C72.0608 27.4468 73.4322 28.5497 75.1396 28.5497C76.8114 28.5497 78.23 27.4013 78.23 24.0709C78.2466 20.786 76.859 19.683 75.1396 19.683Z" fill="black"/>
<path d="M90.1563 29.5546C89.0361 29.5546 88.6098 29.1 87.8542 27.9492L86.7816 26.3151C85.8509 24.9083 85.6779 24.6044 84.8869 24.6044C84.7975 24.6038 84.7081 24.6094 84.6192 24.6212C84.6192 28.4348 84.6807 28.6454 85.0122 29.2364L85.1546 29.4924C85.1546 29.4924 84.745 29.4636 83.75 29.4636C82.7555 29.4636 82.3293 29.4924 82.3293 29.4924L82.4712 29.2364C82.7865 28.6765 82.8669 28.5544 82.8669 24.0159C82.8669 19.6112 82.8031 19.5514 82.4712 18.9461L82.3293 18.6877C82.3293 18.6877 82.8193 18.7188 83.5133 18.7188C83.9872 18.7188 84.8537 18.6877 85.408 18.6877C87.3615 18.6877 89.7584 18.8241 89.7584 21.4272C89.7584 22.834 88.8775 24.3173 86.3364 24.2982C87.6458 24.4633 88.1359 25.114 88.9413 26.4012L89.7134 27.6884C90.234 28.5497 90.6298 29.1239 91.2595 29.3966C91.255 29.3966 91.0183 29.5546 90.1563 29.5546ZM85.3581 19.683C84.9485 19.683 84.617 19.7117 84.617 19.7117V23.6163C84.617 23.6163 84.9013 23.6331 85.4839 23.6331C85.6874 23.6331 86.1469 23.6019 86.4146 23.5709C87.2029 23.4345 87.8493 22.8148 87.8493 21.6186C87.8493 19.8935 86.7766 19.683 85.3581 19.683Z" fill="black"/>
<path d="M100.117 20.53C99.9522 20.3573 99.7599 20.2141 99.5484 20.1065C99.0129 19.8468 98.4227 19.7228 97.8289 19.7452H96.8366V24.1642C96.8366 28.5688 96.8982 28.6287 97.2297 29.234L97.3721 29.49C97.3721 29.49 96.9458 29.4613 95.9508 29.4613C94.9563 29.4613 94.4995 29.49 94.4995 29.49L94.6415 29.234C94.9563 28.6597 95.0367 28.5521 95.0367 24.0135V19.7452H94.0422C93.4484 19.7235 92.8582 19.8483 92.3228 20.1089C92.1098 20.2135 91.918 20.3571 91.7568 20.5324C91.7914 20.2002 91.8071 19.8663 91.8044 19.5323C91.8044 18.9581 91.7878 18.7021 91.7878 18.7021H100.076C100.076 18.7021 100.062 18.9581 100.062 19.5323C100.062 19.8656 100.08 20.1987 100.117 20.53Z" fill="black"/>
<path d="M108.808 29.0043L108.777 29.4827H103.212C102.359 29.4827 101.997 29.4971 101.997 29.4971L102.139 29.2411C102.454 28.6669 102.532 28.5593 102.532 24.0206C102.532 19.616 102.471 19.5562 102.139 18.9509L101.997 18.6925C101.997 18.6925 102.343 18.7093 103.195 18.7093H108.628C108.628 18.7093 108.613 18.9653 108.613 19.5394C108.61 19.8687 108.626 20.1978 108.661 20.5251C108.494 20.3589 108.303 20.2208 108.093 20.116C107.549 19.8679 106.955 19.754 106.359 19.7835H104.339V23.5422H105.98C106.721 23.5422 107.337 23.4656 107.714 23.2527C107.919 23.1496 108.107 23.0156 108.272 22.8555C108.272 22.8699 108.225 23.2933 108.225 24.0805C108.225 24.8676 108.272 25.2624 108.272 25.2911C108.104 25.1272 107.913 24.9901 107.704 24.8843C107.328 24.6714 106.712 24.5948 105.971 24.5948H104.33V28.3941H106.191C108.147 28.3941 108.398 27.9563 108.983 27.1381C108.983 27.1429 108.903 27.7027 108.808 29.0043Z" fill="black"/>
<path d="M118.941 29.5546C117.821 29.5546 117.397 29.1 116.639 27.9492L115.566 26.3151C114.636 24.9083 114.463 24.6044 113.672 24.6044C113.583 24.604 113.493 24.6096 113.404 24.6212C113.404 28.4348 113.468 28.6454 113.8 29.2364L113.942 29.4924C113.942 29.4924 113.53 29.4636 112.538 29.4636C111.545 29.4636 111.117 29.4924 111.117 29.4924L111.259 29.2364C111.574 28.6765 111.652 28.5544 111.652 24.0159C111.652 19.6112 111.588 19.5514 111.259 18.9461L111.117 18.6877C111.117 18.6877 111.605 18.7188 112.301 18.7188C112.775 18.7188 113.641 18.6877 114.195 18.6877C116.152 18.6877 118.548 18.8241 118.548 21.4272C118.548 22.834 117.665 24.3173 115.126 24.2982C116.436 24.4633 116.923 25.114 117.731 26.4012L118.503 27.6884C119.024 28.5497 119.417 29.1239 120.047 29.3966C120.045 29.3966 119.808 29.5546 118.941 29.5546ZM114.148 19.683C113.738 19.683 113.407 19.7117 113.407 19.7117V23.6163C113.407 23.6163 113.691 23.6331 114.274 23.6331C114.48 23.6331 114.937 23.6019 115.204 23.5709C115.993 23.4345 116.639 22.8148 116.639 21.6186C116.639 19.8935 115.566 19.683 114.148 19.683Z" fill="black"/>
</g>
</svg>
