<svg width="221" height="32" viewBox="0 0 492 71" fill="none" xmlns="http://www.w3.org/2000/svg">
<g clip-path="url(#clip0_36_1876)">
<path d="M42.0241 18.051L67.2407 11.3025V59.7721L42.0241 52.9491V18.051Z" fill="#C40D23"/>
<path d="M0 0L42.0241 18.0509V52.9491L0 71V0Z" fill="#F80B28"/>
<path d="M334.643 10.5089C334.279 10.1227 333.85 9.80365 333.378 9.56614C332.186 8.98607 330.872 8.70819 329.55 8.75654H327.341V18.5943C327.341 28.4001 327.483 28.5332 328.216 29.8808L328.533 30.4507C328.533 30.4507 327.589 30.3868 325.369 30.3868C323.15 30.3868 322.143 30.4507 322.143 30.4507L322.454 29.8808C323.16 28.5971 323.334 28.3628 323.334 18.2587V8.75654H321.12C319.8 8.71548 318.489 9.00071 317.303 9.58745C316.829 9.82334 316.401 10.1426 316.038 10.5302C316.114 9.79067 316.149 9.04735 316.143 8.3038C316.143 7.02548 316.106 6.45557 316.106 6.45557H334.559C334.559 6.45557 334.522 7.02548 334.522 8.3038C334.521 9.04055 334.562 9.77673 334.643 10.5089Z" fill="black"/>
<path d="M356.617 30.3868C354.371 30.3868 353.385 30.4507 353.385 30.4507L353.702 29.8808C354.371 28.6344 354.582 28.3308 354.582 19.4358H343.558C343.558 28.3628 343.7 28.5652 344.433 29.8808L344.75 30.4507C344.75 30.4507 343.801 30.3868 341.586 30.3868C339.372 30.3868 338.354 30.4507 338.354 30.4507L338.671 29.8808C339.377 28.5971 339.551 28.3628 339.551 18.2587C339.551 8.45294 339.409 8.31978 338.671 6.97222L338.354 6.39697C338.354 6.39697 339.272 6.46622 341.549 6.46622C343.827 6.46622 344.744 6.39697 344.744 6.39697L344.428 6.97222C343.764 8.18129 343.553 8.48489 343.553 16.6715H354.577C354.577 8.55414 354.398 8.25054 353.696 6.97222L353.38 6.39697C353.38 6.39697 354.292 6.46622 356.575 6.46622C358.858 6.46622 359.77 6.39697 359.77 6.39697L359.453 6.97222C358.752 8.25054 358.578 8.48489 358.578 18.5943C358.578 28.4001 358.715 28.5332 359.453 29.8808L359.77 30.4507C359.77 30.4507 358.863 30.3868 356.617 30.3868Z" fill="black"/>
<path d="M380.8 29.3747L380.732 30.44H368.337C366.444 30.44 365.638 30.4719 365.638 30.4719L365.954 29.902C366.655 28.6184 366.829 28.384 366.829 18.28C366.829 8.47418 366.687 8.34102 365.954 6.99346L365.638 6.41821C365.638 6.41821 366.407 6.4555 368.305 6.4555H380.379C380.379 6.4555 380.347 7.02541 380.347 8.30373C380.34 9.03667 380.375 9.76941 380.452 10.4982C380.08 10.13 379.653 9.82272 379.187 9.58738C377.975 9.03522 376.651 8.78149 375.323 8.84702H370.831V17.2147H374.484C376.135 17.2147 377.5 17.0442 378.344 16.5702C378.806 16.344 379.232 16.0496 379.609 15.6967C379.609 15.7286 379.503 16.6714 379.503 18.4238C379.503 20.1761 379.609 21.055 379.609 21.1189C379.233 20.755 378.807 20.4482 378.344 20.2081C377.5 19.7394 376.135 19.5689 374.484 19.5689H370.831V28.0271H374.975C379.324 28.0271 379.888 27.0524 381.185 25.2308C381.175 25.2308 381.011 26.4772 380.8 29.3747Z" fill="black"/>
<path d="M333.451 65.5139C330.958 65.5139 330.009 64.5019 328.322 61.9399L325.939 58.302C323.867 55.1701 323.482 54.4937 321.721 54.4937C321.52 54.4926 321.319 54.505 321.12 54.531C321.12 63.0211 321.262 63.4898 322 64.8055L322.317 65.3754C322.317 65.3754 321.405 65.3115 319.19 65.3115C316.976 65.3115 316.027 65.3754 316.027 65.3754L316.343 64.8055C317.045 63.5591 317.219 63.2874 317.219 53.1834C317.219 43.3776 317.081 43.2445 316.343 41.8969L316.027 41.3217C316.027 41.3217 317.113 41.3909 318.663 41.3909C319.717 41.3909 321.647 41.3217 322.881 41.3217C327.236 41.3217 332.571 41.6253 332.571 47.4203C332.571 50.5522 330.604 53.8545 324.953 53.8119C327.868 54.1794 328.954 55.6282 330.752 58.4937L332.471 61.3593C333.631 63.2768 334.506 64.5551 335.913 65.1623C335.908 65.1623 335.381 65.5139 333.451 65.5139ZM322.775 43.5374C321.863 43.5374 321.125 43.6013 321.125 43.6013V52.2939C321.125 52.2939 321.758 52.3312 323.06 52.3312C323.513 52.3312 324.531 52.2619 325.127 52.1927C326.882 51.8891 328.322 50.5096 328.322 47.8464C328.322 44.0061 325.939 43.5374 322.775 43.5374Z" fill="black"/>
<path d="M354.334 64.2888L354.266 65.354H341.871C339.978 65.354 339.172 65.386 339.172 65.386L339.488 64.8161C340.189 63.5378 340.363 63.2981 340.363 53.194C340.363 43.3882 340.221 43.2551 339.488 41.9075L339.172 41.3323C339.172 41.3323 339.941 41.3696 341.839 41.3696H353.912C353.912 41.3696 353.881 41.9395 353.881 43.2178C353.873 43.9507 353.909 44.6835 353.986 45.4122C353.614 45.0441 353.187 44.7368 352.721 44.5014C351.509 43.9493 350.185 43.6956 348.857 43.7611H344.365V52.1288H348.018C349.668 52.1288 351.034 51.9583 351.877 51.4843C352.34 51.2581 352.766 50.9637 353.143 50.6107C353.143 50.6427 353.037 51.5855 353.037 53.3378C353.037 55.0902 353.143 55.969 353.143 56.0329C352.767 55.6698 352.341 55.3646 351.877 55.1275C351.034 54.6534 349.668 54.483 348.018 54.483H344.365V62.9412H348.487C352.837 62.9412 353.401 61.9665 354.698 60.1449C354.719 60.1449 354.545 61.3912 354.334 64.2888Z" fill="black"/>
<path d="M367.53 55.9265C366.721 55.926 365.912 55.8691 365.11 55.7561C365.11 62.8667 365.248 63.4739 366.023 64.8108L366.339 65.3807C366.339 65.3807 365.427 65.3168 363.144 65.3168C360.861 65.3168 359.949 65.3807 359.949 65.3807L360.265 64.8108C360.967 63.5645 361.141 63.2928 361.141 53.1888C361.141 43.383 361.004 43.2498 360.265 41.9023L359.949 41.327C359.949 41.327 360.935 41.3963 362.548 41.3963C364.019 41.3963 365.917 41.327 366.972 41.327C370.409 41.327 376.73 41.5667 376.73 48.4057C376.73 54.8612 371.426 55.9265 367.53 55.9265ZM366.94 43.5375C365.885 43.5375 365.116 43.6014 365.116 43.6014V53.5776C365.79 53.6678 366.471 53.7016 367.151 53.6788C372.244 53.6788 372.455 50.2753 372.455 48.3525C372.449 44.0754 369.286 43.5375 366.94 43.5375Z" fill="black"/>
<path d="M392.03 65.7376C384.765 65.7376 380.8 61.0878 380.8 53.8812C380.8 50.2753 381.855 41.098 392.067 41.098C399.369 41.098 403.333 45.7479 403.333 52.9544C403.318 56.5391 402.263 65.7376 392.03 65.7376ZM392.03 43.5375C388.313 43.5375 385.176 46.0941 385.176 53.5084C385.176 60.8214 388.229 63.2769 392.03 63.2769C395.752 63.2769 398.91 60.7202 398.91 53.306C398.947 45.9929 395.858 43.5375 392.03 43.5375Z" fill="black"/>
<path d="M425.461 65.5139C422.967 65.5139 422.018 64.5019 420.336 61.9399L417.948 58.302C415.876 55.1701 415.491 54.4937 413.73 54.4937C413.531 54.4924 413.332 54.5048 413.134 54.531C413.134 63.0211 413.271 63.4898 414.009 64.8055L414.326 65.3754C414.326 65.3754 413.414 65.3115 411.199 65.3115C408.985 65.3115 408.036 65.3754 408.036 65.3754L408.352 64.8055C409.054 63.5591 409.233 63.2874 409.233 53.1834C409.233 43.3776 409.091 43.2445 408.352 41.8969L408.036 41.3217C408.036 41.3217 409.127 41.3909 410.672 41.3909C411.727 41.3909 413.656 41.3217 414.89 41.3217C419.239 41.3217 424.575 41.6253 424.575 47.4203C424.575 50.5522 422.614 53.8545 416.957 53.8119C419.872 54.1794 420.963 55.6282 422.756 58.4937L424.475 61.3593C425.634 63.2768 426.515 64.5551 427.917 65.1623C427.907 65.1623 427.38 65.5139 425.461 65.5139ZM414.779 43.5374C413.867 43.5374 413.129 43.6013 413.129 43.6013V52.2939C413.129 52.2939 413.762 52.3312 415.059 52.3312C415.512 52.3312 416.535 52.2619 417.131 52.1927C418.886 51.8891 420.325 50.5096 420.325 47.8464C420.325 44.0061 417.937 43.5374 414.779 43.5374Z" fill="black"/>
<path d="M447.635 45.423C447.269 45.0385 446.841 44.7197 446.37 44.4802C445.178 43.902 443.864 43.6259 442.542 43.6759H440.333V53.5137C440.333 63.3194 440.47 63.4526 441.208 64.8002L441.525 65.3701C441.525 65.3701 440.576 65.3062 438.361 65.3062C436.147 65.3062 435.13 65.3701 435.13 65.3701L435.446 64.8002C436.147 63.5218 436.326 63.2821 436.326 53.1781V43.6759H434.112C432.79 43.6276 431.476 43.9054 430.284 44.4855C429.81 44.7184 429.383 45.0381 429.024 45.4283C429.101 44.6887 429.136 43.9454 429.13 43.2019C429.13 41.9236 429.093 41.3536 429.093 41.3536H447.545C447.545 41.3536 447.514 41.9236 447.514 43.2019C447.513 43.9439 447.553 44.6855 447.635 45.423Z" fill="black"/>
<path d="M466.984 64.2888L466.915 65.354H454.526C452.628 65.354 451.821 65.386 451.821 65.386L452.137 64.8161C452.839 63.5378 453.013 63.2981 453.013 53.194C453.013 43.3882 452.876 43.2551 452.137 41.9075L451.821 41.3323C451.821 41.3323 452.591 41.3696 454.489 41.3696H466.583C466.583 41.3696 466.551 41.9395 466.551 43.2178C466.544 43.9507 466.579 44.6835 466.657 45.4122C466.286 45.0422 465.859 44.7347 465.392 44.5014C464.181 43.9491 462.859 43.6954 461.532 43.7611H457.035V52.1288H460.689C462.339 52.1288 463.71 51.9583 464.548 51.4843C465.005 51.2548 465.424 50.9566 465.792 50.6001C465.792 50.6321 465.687 51.5748 465.687 53.3272C465.687 55.0795 465.792 55.9584 465.792 56.0223C465.418 55.6576 464.992 55.3523 464.527 55.1168C463.689 54.6428 462.318 54.4723 460.668 54.4723H457.014V62.9305H461.158C465.513 62.9305 466.072 61.9558 467.374 60.1342C467.374 60.1449 467.195 61.3912 466.984 64.2888Z" fill="black"/>
<path d="M489.543 65.5139C487.049 65.5139 486.106 64.5019 484.419 61.9399L482.03 58.302C479.958 55.1701 479.574 54.4937 477.813 54.4937C477.614 54.4927 477.414 54.5052 477.217 54.531C477.217 63.0211 477.359 63.4898 478.097 64.8055L478.414 65.3754C478.414 65.3754 477.496 65.3115 475.287 65.3115C473.078 65.3115 472.124 65.3754 472.124 65.3754L472.44 64.8055C473.142 63.5591 473.316 63.2874 473.316 53.1834C473.316 43.3776 473.173 43.2445 472.44 41.8969L472.124 41.3217C472.124 41.3217 473.21 41.3909 474.76 41.3909C475.815 41.3909 477.744 41.3217 478.978 41.3217C483.333 41.3217 488.668 41.6253 488.668 47.4203C488.668 50.5522 486.702 53.8545 481.05 53.8119C483.965 54.1794 485.051 55.6282 486.849 58.4937L488.568 61.3593C489.728 63.2768 490.603 64.5551 492.005 65.1623C492 65.1623 491.473 65.5139 489.543 65.5139ZM478.872 43.5374C477.96 43.5374 477.222 43.6013 477.222 43.6013V52.2939C477.222 52.2939 477.855 52.3312 479.152 52.3312C479.611 52.3312 480.628 52.2619 481.224 52.1927C482.979 51.8891 484.419 50.5096 484.419 47.8464C484.419 44.0061 482.03 43.5374 478.872 43.5374Z" fill="black"/>
<path d="M109.66 48.7573H114.932C117.522 48.8273 120.112 48.5859 122.645 48.0382V52.7307C120.112 52.1812 117.523 51.9381 114.932 52.0063H109.66V62.1743C109.643 62.9083 109.796 63.6362 110.106 64.3001C110.416 64.9639 110.876 65.5456 111.447 65.9986H102.232C102.804 65.5456 103.263 64.9639 103.573 64.3001C103.883 63.6362 104.036 62.9083 104.019 62.1743V52.0063H97.8085C95.2181 51.9381 92.6289 52.1812 90.0953 52.7307V48.0435C92.6291 48.5912 95.2183 48.8326 97.8085 48.7626H104.019V41.6147H99.0211C96.4306 41.5436 93.841 41.7868 91.3079 42.3391V38.078C93.8417 38.6257 96.4309 38.8671 99.0211 38.797H113.087C115.677 38.8671 118.266 38.6257 120.8 38.078V42.3391C118.267 41.7868 115.678 41.5436 113.087 41.6147H109.66V48.7573ZM98.7364 27.191C96.1462 27.121 93.557 27.3623 91.0232 27.91V23.5105C93.557 24.0582 96.1462 24.2995 98.7364 24.2295H104.008V17.4491H99.7222C97.1335 17.3783 94.5458 17.6215 92.0144 18.1735V13.481C94.5458 14.033 97.1335 14.2762 99.7222 14.2054H104.008V10.1627C104.024 9.4289 103.871 8.70145 103.561 8.03775C103.251 7.37405 102.792 6.79228 102.221 6.33838H111.437C110.868 6.79337 110.411 7.37562 110.103 8.03926C109.795 8.70289 109.643 9.42979 109.66 10.1627V14.2054H113.019C115.609 14.2766 118.199 14.0334 120.732 13.481V18.1735C118.2 17.6215 115.613 17.3783 113.024 17.4491H109.66V24.2295H114.231C116.824 24.2793 119.414 24.0128 121.944 23.4359V27.8408C119.588 27.2602 117.089 27.191 114.231 27.191H98.7364ZM98.3779 28.1284C100.967 30.1017 103.315 32.3777 105.374 34.9088L101.225 37.8649C99.7752 34.9709 98.0275 32.2393 96.0107 29.7156L98.3779 28.1284ZM108.395 36.0593C110.031 33.5032 111.486 30.8333 112.75 28.0698L117.394 30.5945C115.392 33.1701 113.116 35.517 110.609 37.5933L108.395 36.0593ZM145.384 53.2314C148.669 56.1875 153.24 58.5577 156.456 60.0118L151.315 65.3382C148.105 63.6817 144.989 60.5764 142.105 57.1143C138.738 60.315 134.847 62.9027 130.606 64.7629V65.988H123.157C123.728 65.5346 124.187 64.9528 124.496 64.2889C124.805 63.625 124.957 62.8972 124.939 62.1637V17.6675C124.939 14.9244 124.939 11.2439 124.153 8.28782C128.44 9.35308 133.938 9.73125 137.861 9.73125C141.783 9.73125 147.351 9.36906 151.642 8.28782C150.857 11.2439 150.857 14.493 150.857 16.9431V23.4359C150.857 24.9539 149.929 25.673 147.925 25.673C146.001 25.673 139.643 24.3733 135.647 23.4359L134.861 21.055C137.718 21.2734 140.502 21.4172 143.36 21.4172C144.715 21.4172 145.215 20.9858 145.215 19.9045V12.8312H130.58V31.5905H146.006C146.507 30.9407 147.003 30.2909 147.588 29.6411C149.37 30.4347 151.278 31.4467 153.087 32.4534C151.869 41.327 148.943 48.7573 145.442 53.1568L145.384 53.2314ZM130.622 62.6111C134.173 60.2009 137.249 57.1428 139.69 53.5936C136.696 48.688 135.193 41.833 134.418 34.5466H130.633L130.622 62.6111ZM136.548 34.5466C137.55 39.873 139.337 45.5135 142.189 49.4071C144.193 45.439 145.621 39.6706 146.117 34.5466H136.548Z" fill="black"/>
<path d="M214.829 49.2633H220.754C223.345 49.3344 225.934 49.0912 228.468 48.5389V53.2314C225.933 52.6889 223.345 52.4458 220.754 52.507H214.829V63.1117C214.829 64.9919 213.611 66.0732 211.043 66.0732C208.186 66.0732 200.763 65.0079 196.049 63.9799L195.121 61.2528C198.901 61.5405 202.972 61.7855 206.33 61.7855C207.97 61.7855 208.544 61.1357 208.544 59.9106V52.507H184.192C188.148 54.1416 191.99 56.0457 195.691 58.2062L191.051 62.7549C187.475 58.9413 183.521 55.5075 179.252 52.507H172.841C170.251 52.4458 167.663 52.6889 165.128 53.2314V48.5389C167.661 49.0912 170.251 49.3344 172.841 49.2633H208.544V44.5761C195.759 44.5015 186.338 43.9955 176.126 38.4402C173.659 41.8317 170.361 44.517 166.557 46.2326L162.909 41.327C167.053 40.4642 170.906 39.09 173.405 37.2151V26.9726C170.346 26.8896 167.286 27.1072 164.269 27.6224V23.4359C166.852 23.9837 169.485 24.2497 172.124 24.2295C174.665 24.269 177.201 24.0279 179.69 23.5105C179.156 26.3188 178.893 29.1729 178.904 32.0326V37.6465C186.117 40.7518 195.116 41.0394 205.181 41.0394C214.823 41.0394 224.461 40.608 229.675 39.7398L226.701 44.0701C222.916 44.2831 218.793 44.4323 214.85 44.5015L214.829 49.2633ZM174.507 18.8925C171.669 15.228 168.517 11.8237 165.086 8.71923L167.585 6.33836C171.37 8.43161 175.936 11.2439 179.579 14.4184L174.507 18.8925ZM188.579 14.8552C185.978 14.7893 183.379 15.0306 180.834 15.5742V11.1001C183.367 11.6524 185.957 11.8956 188.547 11.8245H194.541C192.327 10.0189 189.828 8.2878 187.972 6.98817L189.686 4.82568C193.319 6.06019 196.833 7.62917 200.183 9.51286L197.325 11.8245H207.469C208.607 9.65667 209.609 7.42493 210.632 5.11331L219.911 7.71255C217.02 9.26219 214.039 10.6353 210.985 11.8245H220.196C222.786 11.8956 225.376 11.6524 227.909 11.1001V15.5742C225.374 15.0331 222.786 14.7918 220.196 14.8552H208.328C206.258 16.0802 204.188 17.2343 202.117 18.3173H222.679V37.3589H186.828V18.3173H199.676C200.035 17.1615 200.393 16.0057 200.678 14.8552H188.579ZM216.895 23.9685V20.6982H192.643V23.9685H216.895ZM192.643 25.918V29.3801H216.895V25.918H192.643ZM192.643 35.0047H216.895V31.3295H192.643V35.0047Z" fill="black"/>
<path d="M294.385 26.685C296.974 26.7556 299.561 26.5125 302.093 25.9606V30.6531C299.559 30.1079 296.97 29.8648 294.38 29.9287H277.245C273.391 32.5919 268.32 35.1219 263.754 37.0713H292.455V62.1051C292.43 62.8502 292.579 63.5907 292.89 64.2671C293.2 64.9434 293.663 65.5365 294.243 65.9986H284.753C285.326 65.5794 285.788 65.0247 286.1 64.3831C286.411 63.7414 286.562 63.0324 286.54 62.3181H257.47C257.447 63.0318 257.598 63.7402 257.909 64.3816C258.219 65.0231 258.68 65.5782 259.251 65.9986H249.762C250.341 65.5365 250.804 64.9434 251.115 64.2671C251.425 63.5907 251.574 62.8502 251.549 62.1051V41.6147C246.522 43.3366 241.393 44.7366 236.191 45.8065L234.61 43.4949C247.031 40.5388 258.171 36.283 268.599 29.934H244.258C241.667 29.8701 239.079 30.1133 236.544 30.6584V25.9606C239.078 26.5129 241.667 26.7561 244.258 26.685H263.037V18.1628H252.329C249.742 18.1038 247.157 18.3486 244.627 18.8925V14.2054C247.157 14.7486 249.743 14.9864 252.329 14.9138H263.037V10.1627C263.053 9.42941 262.9 8.70237 262.591 8.03877C262.282 7.37517 261.825 6.79311 261.255 6.33838H270.892C270.321 6.79228 269.863 7.37405 269.553 8.03775C269.242 8.70145 269.089 9.4289 269.105 10.1627V14.9138H286.171C288.341 12.3293 290.345 9.60729 292.171 6.76449L297.97 9.79517C293.196 16.1568 287.594 21.8381 281.315 26.685H294.385ZM286.529 47.8944V40.3204H257.396V47.8944H286.529ZM257.47 59.0797H286.529V50.8505H257.47V59.0797ZM269.105 18.1788V26.7009H273.534C277.075 24.205 280.353 21.3494 283.319 18.1788H269.105Z" fill="black"/>
</g>
<defs>
<clipPath id="clip0_36_1876">
<rect width="492" height="71" fill="white"/>
</clipPath>
</defs>
</svg>
