<svg width="68" height="19" viewBox="0 0 68 19" fill="none" xmlns="http://www.w3.org/2000/svg">
<path d="M12.012 5.064H7.81V18H4.752V5.064H0.572V2.336H12.012V5.064ZM22.8204 18H20.9064L20.0264 16.482L16.9684 18.132C15.267 18.132 14.123 17.516 13.5364 16.284C13.243 15.6827 13.0377 15.0373 12.9204 14.348C12.8177 13.644 12.7664 12.918 12.7664 12.17C12.7664 11.4073 12.7737 10.85 12.7884 10.498C12.803 10.1313 12.8397 9.71333 12.8984 9.244C12.957 8.76 13.0377 8.35667 13.1404 8.034C13.2577 7.71133 13.419 7.38133 13.6244 7.044C13.8297 6.692 14.079 6.41333 14.3724 6.208C15.0324 5.75333 15.8904 5.526 16.9464 5.526H19.9604L22.8204 5.35V18ZM19.9604 13.996V8.1H17.7824C16.9757 8.1 16.411 8.408 16.0884 9.024C15.7804 9.64 15.6264 10.564 15.6264 11.796C15.6264 13.0133 15.773 13.8713 16.0664 14.37C16.3744 14.8687 16.9464 15.118 17.7824 15.118L19.9604 13.996ZM27.3783 0.641999C28.0676 0.641999 28.515 0.751999 28.7203 0.971999C28.9256 1.17733 29.0283 1.62467 29.0283 2.314C29.0283 2.98867 28.9183 3.436 28.6983 3.656C28.493 3.86133 28.0456 3.964 27.3563 3.964C26.6816 3.964 26.2343 3.854 26.0143 3.634C25.809 3.414 25.7063 2.96667 25.7063 2.292C25.7063 1.61733 25.809 1.17733 26.0143 0.971999C26.2343 0.751999 26.689 0.641999 27.3783 0.641999ZM28.7863 18H25.9263V5.9H28.7863V18ZM42.5229 5.064H37.0009C36.3556 5.064 35.9009 5.18867 35.6369 5.438C35.3876 5.68733 35.2629 6.12 35.2629 6.736V8.914H41.0049L40.7849 11.642H35.2629V18H32.2049V5.526C32.2049 4.36733 32.4542 3.546 32.9529 3.062C33.4662 2.578 34.3389 2.336 35.5709 2.336H42.5229V5.064ZM54.3555 18H52.2215L51.5615 16.504L48.0415 18.132C47.0588 18.132 46.2008 17.7727 45.4675 17.054C44.7488 16.3207 44.3895 15.2573 44.3895 13.864V5.438H47.2495V13.248C47.2495 14.6413 47.8068 15.338 48.9215 15.338L51.4955 13.952V5.438H54.3555V18ZM67.3188 18H64.4588V9.97C64.4588 9.25133 64.3121 8.76 64.0188 8.496C63.7255 8.232 63.3148 8.1 62.7868 8.1L60.2128 9.178V18H57.3528V5.438H59.4868L60.1468 6.934L63.6668 5.306C64.6495 5.306 65.5001 5.67267 66.2188 6.406C66.9521 7.12467 67.3188 8.18067 67.3188 9.574V18Z" fill="white"/>
<path d="M12.012 5.064V6.064H13.012V5.064H12.012ZM7.81 5.064V4.064H6.81V5.064H7.81ZM7.81 18V19H8.81V18H7.81ZM4.752 18H3.752V19H4.752V18ZM4.752 5.064H5.752V4.064H4.752V5.064ZM0.572 5.064H-0.428V6.064H0.572V5.064ZM0.572 2.336V1.336H-0.428V2.336H0.572ZM12.012 2.336H13.012V1.336H12.012V2.336ZM12.012 4.064H7.81V6.064H12.012V4.064ZM6.81 5.064V18H8.81V5.064H6.81ZM7.81 17H4.752V19H7.81V17ZM5.752 18V5.064H3.752V18H5.752ZM4.752 4.064H0.572V6.064H4.752V4.064ZM1.572 5.064V2.336H-0.428V5.064H1.572ZM0.572 3.336H12.012V1.336H0.572V3.336ZM11.012 2.336V5.064H13.012V2.336H11.012ZM22.8204 18V19H23.8204V18H22.8204ZM20.9064 18L20.0412 18.5015L20.3302 19H20.9064V18ZM20.0264 16.482L20.8915 15.9805L20.4051 15.1414L19.5515 15.6019L20.0264 16.482ZM16.9684 18.132V19.132H17.2209L17.4432 19.0121L16.9684 18.132ZM13.5364 16.284L14.4393 15.854L14.4351 15.8456L13.5364 16.284ZM12.9204 14.348L11.9308 14.4923L11.9325 14.5041L11.9345 14.5158L12.9204 14.348ZM12.7884 10.498L13.7875 10.5396L13.7876 10.538L12.7884 10.498ZM12.8984 9.244L13.8906 9.36803L13.8911 9.36433L12.8984 9.244ZM13.1404 8.034L12.2006 7.69226L12.1936 7.71139L12.1874 7.7308L13.1404 8.034ZM13.6244 7.044L14.4786 7.56395L14.4834 7.55595L14.4881 7.54787L13.6244 7.044ZM14.3724 6.208L13.805 5.38447L13.7989 5.38877L14.3724 6.208ZM19.9604 5.526V6.526H19.9911L20.0218 6.52411L19.9604 5.526ZM22.8204 5.35H23.8204V4.28657L22.7589 4.35189L22.8204 5.35ZM19.9604 13.996L20.4183 14.885L20.9604 14.6057V13.996H19.9604ZM19.9604 8.1H20.9604V7.1H19.9604V8.1ZM16.0884 9.024L15.2025 8.55999L15.1982 8.56835L15.1939 8.57679L16.0884 9.024ZM16.0664 14.37L15.2044 14.877L15.2099 14.8863L15.2156 14.8955L16.0664 14.37ZM17.7824 15.118V16.118H18.0248L18.2403 16.007L17.7824 15.118ZM22.8204 17H20.9064V19H22.8204V17ZM21.7715 17.4985L20.8915 15.9805L19.1612 16.9835L20.0412 18.5015L21.7715 17.4985ZM19.5515 15.6019L16.4935 17.2519L17.4432 19.0121L20.5012 17.3621L19.5515 15.6019ZM16.9684 17.132C16.2337 17.132 15.6966 16.9985 15.3085 16.7895C14.9334 16.5876 14.646 16.2884 14.4392 15.8541L12.6335 16.7139C13.0133 17.5116 13.5913 18.1364 14.3603 18.5505C15.1161 18.9575 16.0017 19.132 16.9684 19.132V17.132ZM14.4351 15.8456C14.1854 15.3336 14.0083 14.7799 13.9062 14.1802L11.9345 14.5158C12.0671 15.2948 12.3007 16.0317 12.6376 16.7224L14.4351 15.8456ZM13.9099 14.2037C13.8145 13.5499 13.7664 12.8722 13.7664 12.17H11.7664C11.7664 12.9638 11.8208 13.7381 11.9308 14.4923L13.9099 14.2037ZM13.7664 12.17C13.7664 11.4091 13.7738 10.8694 13.7875 10.5396L11.7892 10.4564C11.7736 10.8306 11.7664 11.4056 11.7664 12.17H13.7664ZM13.7876 10.538C13.8008 10.2061 13.8345 9.81696 13.8906 9.36803L11.9061 9.11996C11.8449 9.60971 11.8052 10.0566 11.7892 10.458L13.7876 10.538ZM13.8911 9.36433C13.9452 8.91784 14.0158 8.58062 14.0933 8.3372L12.1874 7.7308C12.0596 8.13271 11.9688 8.60215 11.9056 9.12367L13.8911 9.36433ZM14.0802 8.37574C14.1718 8.12359 14.3026 7.85307 14.4786 7.56395L12.7702 6.52405C12.5355 6.90959 12.3435 7.29907 12.2006 7.69226L14.0802 8.37574ZM14.4881 7.54787C14.6307 7.30349 14.7863 7.13893 14.9458 7.02723L13.7989 5.38877C13.3718 5.68774 13.0287 6.08051 12.7606 6.54013L14.4881 7.54787ZM14.9397 7.03151C15.3872 6.72322 16.0294 6.526 16.9464 6.526V4.526C15.7513 4.526 14.6775 4.78345 13.8051 5.38449L14.9397 7.03151ZM16.9464 6.526H19.9604V4.526H16.9464V6.526ZM20.0218 6.52411L22.8818 6.34811L22.7589 4.35189L19.8989 4.52789L20.0218 6.52411ZM21.8204 5.35V18H23.8204V5.35H21.8204ZM20.9604 13.996V8.1H18.9604V13.996H20.9604ZM19.9604 7.1H17.7824V9.1H19.9604V7.1ZM17.7824 7.1C17.2535 7.1 16.737 7.20112 16.275 7.4531C15.8049 7.70953 15.4478 8.0917 15.2025 8.55999L16.9742 9.48801C17.0516 9.3403 17.1382 9.26047 17.2327 9.2089C17.3354 9.15288 17.5046 9.1 17.7824 9.1V7.1ZM15.1939 8.57679C14.7815 9.40175 14.6264 10.5129 14.6264 11.796H16.6264C16.6264 10.6151 16.7793 9.87825 16.9828 9.47121L15.1939 8.57679ZM14.6264 11.796C14.6264 13.0348 14.7651 14.1302 15.2044 14.877L16.9283 13.863C16.7809 13.6124 16.6264 12.9919 16.6264 11.796H14.6264ZM15.2156 14.8955C15.7771 15.8047 16.7616 16.118 17.7824 16.118V14.118C17.1311 14.118 16.9716 13.9326 16.9172 13.8445L15.2156 14.8955ZM18.2403 16.007L20.4183 14.885L19.5024 13.107L17.3244 14.229L18.2403 16.007ZM28.7203 0.971999L27.9893 1.65432L28.001 1.66692L28.0132 1.67911L28.7203 0.971999ZM28.6983 3.656L29.4054 4.36311L29.4054 4.36311L28.6983 3.656ZM26.0143 3.634L25.2833 4.31632L25.295 4.32892L25.3072 4.3411L26.0143 3.634ZM26.0143 0.971999L25.3072 0.264892L25.3072 0.264892L26.0143 0.971999ZM28.7863 18V19H29.7863V18H28.7863ZM25.9263 18H24.9263V19H25.9263V18ZM25.9263 5.9V4.9H24.9263V5.9H25.9263ZM28.7863 5.9H29.7863V4.9H28.7863V5.9ZM27.3783 1.642C27.6781 1.642 27.8748 1.66674 27.992 1.69557C28.12 1.72705 28.0721 1.74308 27.9893 1.65432L29.4514 0.28968C29.1632 -0.0190859 28.7889 -0.168054 28.4696 -0.246573C28.1395 -0.327744 27.7679 -0.358001 27.3783 -0.358001V1.642ZM28.0132 1.67911C27.9269 1.59277 27.9451 1.54753 27.9767 1.68519C28.005 1.80875 28.0283 2.01107 28.0283 2.314H30.0283C30.0283 1.9276 30.0003 1.56158 29.926 1.23781C29.8549 0.928133 29.7191 0.556562 29.4274 0.264892L28.0132 1.67911ZM28.0283 2.314C28.0283 2.60441 28.0039 2.79816 27.9747 2.91671C27.9438 3.0427 27.9244 3.01571 27.9912 2.94889L29.4054 4.36311C29.6922 4.07629 29.8379 3.71563 29.9169 3.39429C29.9977 3.06551 30.0283 2.69825 30.0283 2.314H28.0283ZM27.9912 2.94889C28.0775 2.86256 28.1228 2.88075 27.9851 2.91234C27.8616 2.9407 27.6592 2.964 27.3563 2.964V4.964C27.7427 4.964 28.1087 4.93597 28.4325 4.86166C28.7422 4.79059 29.1137 4.65478 29.4054 4.36311L27.9912 2.94889ZM27.3563 2.964C27.0659 2.964 26.8722 2.93958 26.7536 2.91043C26.6276 2.87945 26.6546 2.86008 26.7214 2.92689L25.3072 4.3411C25.594 4.62792 25.9547 4.77355 26.276 4.85257C26.6048 4.93342 26.9721 4.964 27.3563 4.964V2.964ZM26.7454 2.95168C26.81 3.02093 26.7889 3.04475 26.758 2.90981C26.7293 2.78502 26.7063 2.58572 26.7063 2.292H24.7063C24.7063 2.67294 24.7346 3.03465 24.8087 3.35719C24.8803 3.66958 25.0133 4.02707 25.2833 4.31632L26.7454 2.95168ZM26.7063 2.292C26.7063 1.99758 26.7295 1.80192 26.7572 1.68323C26.7877 1.55216 26.8049 1.59567 26.7214 1.67911L25.3072 0.264892C25.0184 0.553662 24.8816 0.919836 24.8095 1.22877C24.7345 1.55008 24.7063 1.91175 24.7063 2.292H26.7063ZM26.7214 1.67911C26.6517 1.74881 26.6232 1.72846 26.7555 1.69646C26.8789 1.6666 27.0793 1.642 27.3783 1.642V-0.358001C26.988 -0.358001 26.6164 -0.327605 26.2852 -0.24746C25.9628 -0.169462 25.5969 -0.0248147 25.3072 0.264892L26.7214 1.67911ZM28.7863 17H25.9263V19H28.7863V17ZM26.9263 18V5.9H24.9263V18H26.9263ZM25.9263 6.9H28.7863V4.9H25.9263V6.9ZM27.7863 5.9V18H29.7863V5.9H27.7863ZM42.5229 5.064V6.064H43.5229V5.064H42.5229ZM35.6369 5.438L34.9503 4.71099L34.9399 4.72079L34.9298 4.73089L35.6369 5.438ZM35.2629 8.914H34.2629V9.914H35.2629V8.914ZM41.0049 8.914L42.0017 8.99438L42.0888 7.914H41.0049V8.914ZM40.7849 11.642V12.642H41.7075L41.7817 11.7224L40.7849 11.642ZM35.2629 11.642V10.642H34.2629V11.642H35.2629ZM35.2629 18V19H36.2629V18H35.2629ZM32.2049 18H31.2049V19H32.2049V18ZM32.9529 3.062L32.2669 2.33441L32.2616 2.33938L32.2564 2.34442L32.9529 3.062ZM42.5229 2.336H43.5229V1.336H42.5229V2.336ZM42.5229 4.064H37.0009V6.064H42.5229V4.064ZM37.0009 4.064C36.281 4.064 35.4992 4.19259 34.9503 4.71099L36.3235 6.16501C36.3061 6.18145 36.3254 6.15343 36.4403 6.1219C36.5564 6.09007 36.7372 6.064 37.0009 6.064V4.064ZM34.9298 4.73089C34.3942 5.2665 34.2629 6.03821 34.2629 6.736H36.2629C36.2629 6.48982 36.2885 6.32652 36.3173 6.22637C36.3455 6.1286 36.3677 6.12146 36.344 6.14511L34.9298 4.73089ZM34.2629 6.736V8.914H36.2629V6.736H34.2629ZM35.2629 9.914H41.0049V7.914H35.2629V9.914ZM40.0081 8.83362L39.7881 11.5616L41.7817 11.7224L42.0017 8.99438L40.0081 8.83362ZM40.7849 10.642H35.2629V12.642H40.7849V10.642ZM34.2629 11.642V18H36.2629V11.642H34.2629ZM35.2629 17H32.2049V19H35.2629V17ZM33.2049 18V5.526H31.2049V18H33.2049ZM33.2049 5.526C33.2049 4.46637 33.4404 3.98239 33.6494 3.77958L32.2564 2.34442C31.468 3.10961 31.2049 4.2683 31.2049 5.526H33.2049ZM33.6389 3.78959C33.8699 3.57183 34.4192 3.336 35.5709 3.336V1.336C34.2586 1.336 33.0626 1.58417 32.2669 2.33441L33.6389 3.78959ZM35.5709 3.336H42.5229V1.336H35.5709V3.336ZM41.5229 2.336V5.064H43.5229V2.336H41.5229ZM54.3555 18V19H55.3555V18H54.3555ZM52.2215 18L51.3066 18.4036L51.5697 19H52.2215V18ZM51.5615 16.504L52.4764 16.1004L52.0655 15.1691L51.1417 15.5964L51.5615 16.504ZM48.0415 18.132V19.132H48.2615L48.4612 19.0396L48.0415 18.132ZM45.4675 17.054L44.7533 17.7539L44.7603 17.7611L44.7675 17.7682L45.4675 17.054ZM44.3895 5.438V4.438H43.3895V5.438H44.3895ZM47.2495 5.438H48.2495V4.438H47.2495V5.438ZM48.9215 15.338V16.338H49.1736L49.3956 16.2185L48.9215 15.338ZM51.4955 13.952L51.9696 14.8325L52.4955 14.5493V13.952H51.4955ZM51.4955 5.438V4.438H50.4955V5.438H51.4955ZM54.3555 5.438H55.3555V4.438H54.3555V5.438ZM54.3555 17H52.2215V19H54.3555V17ZM53.1364 17.5964L52.4764 16.1004L50.6466 16.9076L51.3066 18.4036L53.1364 17.5964ZM51.1417 15.5964L47.6217 17.2244L48.4612 19.0396L51.9812 17.4116L51.1417 15.5964ZM48.0415 17.132C47.3333 17.132 46.7231 16.8844 46.1674 16.3398L44.7675 17.7682C45.6785 18.6609 46.7843 19.132 48.0415 19.132V17.132ZM46.1817 16.3541C45.7037 15.8663 45.3895 15.0912 45.3895 13.864H43.3895C43.3895 15.4234 43.7939 16.775 44.7533 17.7539L46.1817 16.3541ZM45.3895 13.864V5.438H43.3895V13.864H45.3895ZM44.3895 6.438H47.2495V4.438H44.3895V6.438ZM46.2495 5.438V13.248H48.2495V5.438H46.2495ZM46.2495 13.248C46.2495 14.0515 46.4058 14.8392 46.8866 15.4402C47.4015 16.0838 48.1434 16.338 48.9215 16.338V14.338C48.5848 14.338 48.4908 14.2439 48.4483 14.1908C48.3718 14.0951 48.2495 13.8378 48.2495 13.248H46.2495ZM49.3956 16.2185L51.9696 14.8325L51.0214 13.0715L48.4474 14.4575L49.3956 16.2185ZM52.4955 13.952V5.438H50.4955V13.952H52.4955ZM51.4955 6.438H54.3555V4.438H51.4955V6.438ZM53.3555 5.438V18H55.3555V5.438H53.3555ZM67.3188 18V19H68.3188V18H67.3188ZM64.4588 18H63.4588V19H64.4588V18ZM64.0188 8.496L63.3498 9.23929L63.3498 9.23929L64.0188 8.496ZM62.7868 8.1V7.1H62.5859L62.4005 7.17762L62.7868 8.1ZM60.2128 9.178L59.8265 8.25562L59.2128 8.51265V9.178H60.2128ZM60.2128 18V19H61.2128V18H60.2128ZM57.3528 18H56.3528V19H57.3528V18ZM57.3528 5.438V4.438H56.3528V5.438H57.3528ZM59.4868 5.438L60.4017 5.03436L60.1386 4.438H59.4868V5.438ZM60.1468 6.934L59.2319 7.33764L59.6427 8.2689L60.5666 7.84163L60.1468 6.934ZM63.6668 5.306V4.306H63.4467L63.247 4.39837L63.6668 5.306ZM66.2188 6.406L65.5046 7.10593L65.5117 7.11314L65.5189 7.12021L66.2188 6.406ZM67.3188 17H64.4588V19H67.3188V17ZM65.4588 18V9.97H63.4588V18H65.4588ZM65.4588 9.97C65.4588 9.18266 65.3111 8.31367 64.6878 7.75271L63.3498 9.23929C63.3247 9.21668 63.3544 9.2273 63.3906 9.34853C63.4276 9.47249 63.4588 9.67188 63.4588 9.97H65.4588ZM64.6878 7.75271C64.1563 7.27435 63.477 7.1 62.7868 7.1V9.1C63.1526 9.1 63.2947 9.18964 63.3498 9.23929L64.6878 7.75271ZM62.4005 7.17762L59.8265 8.25562L60.5991 10.1004L63.1731 9.02238L62.4005 7.17762ZM59.2128 9.178V18H61.2128V9.178H59.2128ZM60.2128 17H57.3528V19H60.2128V17ZM58.3528 18V5.438H56.3528V18H58.3528ZM57.3528 6.438H59.4868V4.438H57.3528V6.438ZM58.5719 5.84164L59.2319 7.33764L61.0617 6.53036L60.4017 5.03436L58.5719 5.84164ZM60.5666 7.84163L64.0866 6.21363L63.247 4.39837L59.727 6.02637L60.5666 7.84163ZM63.6668 6.306C64.3676 6.306 64.9646 6.55489 65.5046 7.10593L66.933 5.70607C66.0357 4.79044 64.9314 4.306 63.6668 4.306V6.306ZM65.5189 7.12021C65.9996 7.59137 66.3188 8.35059 66.3188 9.574H68.3188C68.3188 8.01075 67.9046 6.65796 66.9187 5.69179L65.5189 7.12021ZM66.3188 9.574V18H68.3188V9.574H66.3188Z" fill="#2F798C"/>
</svg>
