<svg width="24" height="24" viewBox="0 0 24 24" fill="none" xmlns="http://www.w3.org/2000/svg">
<path d="M20.28 3H3.72C3.32175 3 3 3.32175 3 3.72V20.28C3 20.6783 3.32175 21 3.72 21H20.28C20.6783 21 21 20.6783 21 20.28V3.72C21 3.32175 20.6783 3 20.28 3ZM18.201 8.25375H16.7633C15.636 8.25375 15.4178 8.78925 15.4178 9.57675V11.3115H18.1088L17.7578 14.0273H15.4178V21H12.612V14.0295H10.2652V11.3115H12.612V9.309C12.612 6.98475 14.0318 5.718 16.1063 5.718C17.1008 5.718 17.9535 5.79225 18.2033 5.826V8.25375H18.201Z" fill="#808080"/>
</svg>
