<svg width="24" height="24" viewBox="0 0 24 24" fill="none" xmlns="http://www.w3.org/2000/svg">
<path fill-rule="evenodd" clip-rule="evenodd" d="M8.28955 3.054C9.24927 3.00982 9.55527 3 12 3C14.4447 3 14.7507 3.01064 15.7096 3.054C16.6685 3.09736 17.3231 3.25036 17.8958 3.47209C18.4955 3.69873 19.0396 4.053 19.4896 4.51118C19.9478 4.96036 20.3013 5.50364 20.5271 6.10418C20.7496 6.67691 20.9018 7.33145 20.946 8.28873C20.9902 9.25009 21 9.55609 21 12C21 14.4447 20.9894 14.7507 20.946 15.7105C20.9026 16.6677 20.7496 17.3223 20.5271 17.895C20.3013 18.4956 19.9472 19.0398 19.4896 19.4896C19.0396 19.9478 18.4955 20.3013 17.8958 20.5271C17.3231 20.7496 16.6685 20.9018 15.7113 20.946C14.7507 20.9902 14.4447 21 12 21C9.55527 21 9.24927 20.9894 8.28955 20.946C7.33227 20.9026 6.67773 20.7496 6.105 20.5271C5.50439 20.3012 4.96022 19.9472 4.51036 19.4896C4.05249 19.0402 3.69817 18.4963 3.47209 17.8958C3.25036 17.3231 3.09818 16.6685 3.054 15.7113C3.00982 14.7499 3 14.4439 3 12C3 9.55527 3.01064 9.24927 3.054 8.29036C3.09736 7.33145 3.25036 6.67691 3.47209 6.10418C3.6985 5.5037 4.0531 4.9598 4.51118 4.51036C4.9604 4.05259 5.50402 3.69827 6.10418 3.47209C6.67691 3.25036 7.33145 3.09818 8.28873 3.054H8.28955ZM15.6368 4.674C14.6877 4.63064 14.403 4.62164 12 4.62164C9.597 4.62164 9.31227 4.63064 8.36318 4.674C7.48527 4.71409 7.00909 4.86055 6.69164 4.98409C6.27191 5.14773 5.97164 5.34164 5.65664 5.65664C5.35804 5.94713 5.12824 6.30078 4.98409 6.69164C4.86055 7.00909 4.71409 7.48527 4.674 8.36318C4.63064 9.31227 4.62164 9.597 4.62164 12C4.62164 14.403 4.63064 14.6877 4.674 15.6368C4.71409 16.5147 4.86055 16.9909 4.98409 17.3084C5.12809 17.6986 5.358 18.0529 5.65664 18.3434C5.94709 18.642 6.30136 18.8719 6.69164 19.0159C7.00909 19.1395 7.48527 19.2859 8.36318 19.326C9.31227 19.3694 9.59618 19.3784 12 19.3784C14.4038 19.3784 14.6877 19.3694 15.6368 19.326C16.5147 19.2859 16.9909 19.1395 17.3084 19.0159C17.7281 18.8523 18.0284 18.6584 18.3434 18.3434C18.642 18.0529 18.8719 17.6986 19.0159 17.3084C19.1395 16.9909 19.2859 16.5147 19.326 15.6368C19.3694 14.6877 19.3784 14.403 19.3784 12C19.3784 9.597 19.3694 9.31227 19.326 8.36318C19.2859 7.48527 19.1395 7.00909 19.0159 6.69164C18.8523 6.27191 18.6584 5.97164 18.3434 5.65664C18.0528 5.35806 17.6992 5.12826 17.3084 4.98409C16.9909 4.86055 16.5147 4.71409 15.6368 4.674ZM10.8505 14.7745C11.4924 15.0417 12.2073 15.0778 12.8729 14.8765C13.5386 14.6752 14.1137 14.2491 14.5 13.6709C14.8864 13.0927 15.06 12.3983 14.9913 11.7064C14.9226 11.0144 14.6157 10.3677 14.1232 9.87682C13.8092 9.56303 13.4295 9.32276 13.0115 9.1733C12.5936 9.02385 12.1476 8.96893 11.7059 9.0125C11.2641 9.05608 10.8375 9.19705 10.4567 9.42529C10.076 9.65352 9.75061 9.96334 9.50397 10.3324C9.25734 10.7015 9.09561 11.1207 9.03042 11.5598C8.96524 11.9989 8.99821 12.447 9.12699 12.8718C9.25576 13.2966 9.47712 13.6876 9.77514 14.0166C10.0731 14.3456 10.4404 14.6044 10.8505 14.7745ZM8.72891 8.72891C9.15847 8.29934 9.66844 7.95859 10.2297 7.72611C10.791 7.49363 11.3925 7.37398 12 7.37398C12.6075 7.37398 13.209 7.49363 13.7703 7.72611C14.3316 7.95859 14.8415 8.29934 15.2711 8.72891C15.7007 9.15847 16.0414 9.66844 16.2739 10.2297C16.5064 10.791 16.626 11.3925 16.626 12C16.626 12.6075 16.5064 13.209 16.2739 13.7703C16.0414 14.3316 15.7007 14.8415 15.2711 15.2711C14.4035 16.1386 13.2269 16.626 12 16.626C10.7731 16.626 9.59646 16.1386 8.72891 15.2711C7.86136 14.4035 7.37398 13.2269 7.37398 12C7.37398 10.7731 7.86136 9.59646 8.72891 8.72891ZM17.652 8.06291C17.7584 7.96249 17.8437 7.84174 17.9026 7.7078C17.9616 7.57385 17.993 7.42945 17.9952 7.28312C17.9973 7.1368 17.97 6.99154 17.915 6.85594C17.86 6.72033 17.7784 6.59715 17.6749 6.49367C17.5714 6.39019 17.4482 6.30853 17.3126 6.25351C17.177 6.1985 17.0317 6.17125 16.8854 6.17339C16.7391 6.17552 16.5947 6.20699 16.4607 6.26593C16.3268 6.32488 16.2061 6.4101 16.1056 6.51655C15.9103 6.72357 15.8034 6.99855 15.8076 7.28312C15.8117 7.5677 15.9266 7.83945 16.1279 8.04069C16.3291 8.24193 16.6008 8.35682 16.8854 8.36097C17.17 8.36512 17.445 8.2582 17.652 8.06291Z" fill="#808080"/>
</svg>
