<svg width="24" height="24" viewBox="0 0 24 24" fill="none" xmlns="http://www.w3.org/2000/svg">
<path fill-rule="evenodd" clip-rule="evenodd" d="M8.65357 8.45387C8.65357 6.55421 10.1935 5.01424 12.0932 5.01424C13.9929 5.01424 15.5328 6.55421 15.5328 8.45387C15.5328 10.3535 13.9929 11.8935 12.0932 11.8935C10.1935 11.8935 8.65357 10.3535 8.65357 8.45387ZM12.0932 3.01424C9.08898 3.01424 6.65357 5.44964 6.65357 8.45387C6.65357 10.1764 7.45418 11.7119 8.70357 12.7085C5.92973 13.9646 4 16.7569 4 20C4 21.1045 4.89543 22 6 22H18C19.1046 22 20 21.1045 20 20C20 16.8028 18.1245 14.0437 15.4137 12.7628C16.7026 11.7681 17.5328 10.2079 17.5328 8.45387C17.5328 5.44964 15.0974 3.01424 12.0932 3.01424ZM12 14C15.3137 14 18 16.6863 18 20H6C6 16.6863 8.68629 14 12 14Z" fill="#808080"/>
</svg>
