<svg width="24" height="24" viewBox="0 0 24 24" fill="none" xmlns="http://www.w3.org/2000/svg">
<path d="M21 6.66303C20.3381 6.9364 19.6177 7.13314 18.8757 7.20977C19.6461 6.77162 20.223 6.07942 20.4981 5.26303C19.7753 5.67472 18.9834 5.96341 18.1576 6.11628C17.8124 5.76302 17.395 5.4816 16.9312 5.28955C16.4675 5.0975 15.9675 4.99894 15.4622 5.00001C13.418 5.00001 11.7739 6.5864 11.7739 8.53314C11.7739 8.80651 11.8086 9.07989 11.8648 9.34291C8.80387 9.18965 6.07391 7.78965 4.25898 5.64616C3.92828 6.18693 3.75499 6.80266 3.75712 7.4293C3.75712 8.65533 4.40824 9.7364 5.40115 10.3722C4.81602 10.3501 4.24458 10.1962 3.73333 9.92279V9.96628C3.73333 11.6831 5.00096 13.1059 6.69042 13.4331C6.37321 13.512 6.04688 13.5524 5.71914 13.5533C5.47903 13.5533 5.25189 13.5305 5.02259 13.4994C5.48984 14.8994 6.8505 15.9163 8.47074 15.9494C7.2031 16.9 5.61531 17.4592 3.89124 17.4592C3.5819 17.4592 3.29636 17.4488 3 17.4157C4.63538 18.4201 6.57577 19 8.66542 19C15.4492 19 19.1613 13.6195 19.1613 8.94941C19.1613 8.79616 19.1613 8.64291 19.1505 8.48965C19.8686 7.9864 20.4981 7.36302 21 6.66303Z" fill="#808080"/>
</svg>
