<svg width="24" height="24" viewBox="0 0 24 24" fill="none" xmlns="http://www.w3.org/2000/svg">
<path d="M20.6243 7.18694C20.5219 6.76346 20.321 6.37727 20.0417 6.06702C19.7625 5.75677 19.4147 5.53335 19.0333 5.41911C17.629 5 12 5 12 5C12 5 6.37098 5 4.96674 5.41688C4.58509 5.53075 4.23715 5.75405 3.95787 6.06436C3.67859 6.37466 3.4778 6.76105 3.37567 7.18471C3 8.74522 3 12 3 12C3 12 3 15.2548 3.37567 16.8131C3.58259 17.6736 4.1933 18.3513 4.96674 18.5809C6.37098 19 12 19 12 19C12 19 17.629 19 19.0333 18.5809C19.8087 18.3513 20.4174 17.6736 20.6243 16.8131C21 15.2548 21 12 21 12C21 12 21 8.74522 20.6243 7.18694ZM10.2121 14.9873V9.01274L14.8728 11.9777L10.2121 14.9873Z" fill="#808080"/>
</svg>
